# xmcd CD database file
#
# Track frame offsets:
#	150
#	3874
#	26252
#	49292
#	66535
#	85506
#	104896
#	133626
#	152374
#	168782
#
# Disc length: 2757 seconds
#
# Revision: 0
# Processed by: cddbd v1.5.1PL0 Copyright (c) Steve Scherf et al.
# Submitted via: CDex 1.51
#
DISCID=740ac30a
DTITLE=AKT THE JN - MIDNIGHT RAVERS RIDE ON
DYEAR=2005
DGENRE=Trip-Hop
TTITLE0=BROKEN BOX
TTITLE1=BROKEN SHIP
TTITLE2=LIVENTURE
TTITLE3=IN JUNGLE
TTITLE4=CHOCO
TTITLE5=ORB
TTITLE6=GREEN&BLUE
TTITLE7=JANUARY
TTITLE8=FLARE
TTITLE9=FLIGHT OF THE BIRD
EXTD=YEAR: 2005
EXTT0=
EXTT1=
EXTT2=
EXTT3=
EXTT4=
EXTT5=
EXTT6=
EXTT7=
EXTT8=
EXTT9=
PLAYORDER=
